# xmcd
#
# Track frame offsets: 
#        150
#        13003
#        29172
#        47929
#        67790
#        88790
#        106933
#        119605
#        137069
#        157039
#        170411
#        185472
#        217075
#
# Disc length: 4449 seconds
#
# Revision: 0
# Processed by: cddbd v1.5.2PL0 Copyright (c) Steve Scherf et al.
# Submitted via: ExactAudioCopyFreeDBPlugin 1.0
#
DISCID=bd115f0d
DTITLE=Amy Winehouse - Lioness: Hidden Treasures
DYEAR=2011
DGENRE=R&B
TTITLE0=Our Day Will Come
TTITLE1=Between the Cheats
TTITLE2=Tears Dry
TTITLE3=Will You Still Love Me Tomorrow?
TTITLE4=Like Smoke
TTITLE5=Valerie
TTITLE6=The Girl from Imanema
TTITLE7=Halftime
TTITLE8=Wake Up Alone
TTITLE9=Best Friends, Right
TTITLE10=Body and Soul
TTITLE11=A Song for You
TTITLE12=(text)
EXTD=
EXTT0=
EXTT1=
EXTT2=
EXTT3=
EXTT4=
EXTT5=
EXTT6=
EXTT7=
EXTT8=
EXTT9=
EXTT10=
EXTT11=
EXTT12=
PLAYORDER=
